<svg viewBox="0 0 56 56" xmlns="http://www.w3.org/2000/svg">
  <circle cx="28" cy="28" r="28" fill="#758370"/>
  <!-- WhatsApp bubble + handset -->
  <path fill="#D4B896" d="
    M28 15
    C20.8 15 15 20.8 15 28
    C15 30.4 15.7 32.6 16.8 34.5
    L15 41
    L21.7 39.2
    C23.6 40.3 25.7 41 28 41
    C35.2 41 41 35.2 41 28
    C41 20.8 35.2 15 28 15Z
    M28 39
    C25.9 39 24 38.4 22.3 37.4
    L18 38.5 L19.1 34.3
    C18 32.6 17.3 30.6 17.3 28.4 C 17.3 22.1 22.1 17.3 28 17.3
    C33.9 17.3 38.7 22.1 38.7 28
    C38.7 33.9 33.9 39 28 39Z
  "/>
  <path fill="#D4B896" d="
    M34.5 30.8
    C34.2 30.65 32.7 29.9 32.4 29.8
    C32.1 29.7 31.9 29.65 31.7 29.95
    C31.5 30.25 30.9 30.95 30.7 31.15
    C30.5 31.35 30.3 31.4 30.05 31.25
    C29.8 31.1 29 30.84 28.05 30
    C27.3 29.33 26.78 28.5 26.6 28.25
    C26.42 27.97 26.6 27.84 26.76 27.67
    C26.9 27.52 27.07 27.28 27.22 27.1
    C27.37 26.92 27.42 26.78 27.5 26.58
    C27.58 26.38 27.54 26.2 27.46 26.05
    C27.38 25.9 26.86 24.38 26.64 23.82
    C26.42 23.27 26.2 23.36 26.04 23.34
    C25.87 23.32 25.66 23.32 25.46 23.32
    C25.26 23.32 24.94 23.4 24.64 23.7
    C24.34 24 23.6 24.7 23.6 26.2
    C23.6 27.7 24.67 29.15 24.82 29.35
    C24.97 29.55 26.83 32.43 29.68 33.7
    C32.53 34.97 32.53 34.55 33.1 34.5
    C33.67 34.45 34.94 33.8 35.2 33.1
    C35.46 32.4 35.46 31.8 35.38 31.65
    C35.3 31.5 35.08 31.4 34.82 31.25
    C34.56 31.1 34.5 30.8 34.5 30.8Z
  "/>
</svg>
