<svg id="Capa_1" data-name="Capa 1" xmlns="http://www.w3.org/2000/svg" viewBox="0 0 1500 1500"><defs><style>.cls-1{fill:#f4eae4;}</style></defs><path class="cls-1" d="M806.63,580.63c-11.83,7.65-27.53,1.9-32-10.42-6.23-17.12,3-33.62,19.85-39.62a42.67,42.67,0,0,1,15.5-2.37c1.51,0,15.77.76,27.12,10.86,14.87,13.26,16.73,35.55,11.66,51.66-5.87,18.63-20.62,27.73-23.91,29.64-10.66,6.22-20.63,6.91-26.38,7.24a66.76,66.76,0,0,1-10.75-.24c-18.56-1.9-35.25-11.77-47.17-26.12-12.72-15.31-13.27-27.78-13.79-31.41C719,515.7,787,462.28,848.62,502.22c23.82,16.11,36.63,37.57,36.56,66.67.74,63.07-64,99.26-120.36,102.51-84.33,6.86-158.22-54-243.44-33.57C601.2,602.1,678,670.67,758.86,663.4c63.9-1.25,139.67-53.39,112.84-124.47-20-52.83-108.89-58.28-128.79-.22a68.26,68.26,0,0,0-4.11,23.14,58.74,58.74,0,0,0,2.85,19.39,60.89,60.89,0,0,0,12.79,21.22c21.68,24.35,69.22,20.69,82.7-10.35,9.34-20.51,4.9-41.23-16.35-52.51-13-6.92-35,.63-38.8,14.83C777,572.75,789.81,582.09,806.63,580.63Z"/><path class="cls-1" d="M787,672.63c32.69.33,65.39-.33,96.87-10.5,60.58-15.33,129-52.88,189.91-23.72-51.4-12.12-100.56,5-148.79,21.38-44.3,14-91.61,18.79-138,12.84Z"/><path class="cls-1" d="M771.66,650.91c-30.31,8-59.16-3.92-87.28-13.4-30.87-13.08-63.24-16.77-96.51-18.81C652,604.16,709.05,644.34,771.66,650.91Z"/><path class="cls-1" d="M1011.28,619.35c-33.06.78-63.48,6.7-94,18.83-13.65,4.77-58.76,21.33-80.12,18.27C893.67,643.39,951.52,602.39,1011.28,619.35Z"/><circle class="cls-1" cx="703.16" cy="541.96" r="10.72"/><circle class="cls-1" cx="704.15" cy="578.2" r="10.72"/><circle class="cls-1" cx="714.4" cy="510.52" r="8.24"/><circle class="cls-1" cx="717.75" cy="608.76" r="8.24"/><circle class="cls-1" cx="735.46" cy="492.23" r="5.69"/><circle class="cls-1" cx="740.49" cy="626.29" r="5.69"/><path class="cls-1" d="M560.41,705.69V703H593v2.71c-5.09,1.54-7.63,31.64-7.63,47v37.65h71V752.66c0-15.33-2.55-45.43-7.64-47V703h32.51v2.71c-5.09,1.54-7.64,31.64-7.64,47v88c0,15.33,2.55,35.28,7.64,36.81v2.72H648.71v-2.72c5.09-1.53,7.64-21.48,7.64-36.81V801h-71v39.66c0,15.33,2.54,35.28,7.63,36.81v2.72h-32.6v-2.72c5.09-1.53,7.64-21.48,7.64-36.81v-88C568.05,737.33,565.5,707.23,560.41,705.69Z"/><path class="cls-1" d="M784.29,772.4V848q0,9.75,2.05,15.72t5.59,6.88v2.11a100.27,100.27,0,0,0-13.79,3.36,62.9,62.9,0,0,0-10.62,4.07v-13Q740.33,878.85,725,878.84q-11.09,0-16.86-6.43t-5.77-17.57V802.12a49.42,49.42,0,0,0-1.91-15.06q-1.92-5.82-5.17-6.93v-1.8a111.76,111.76,0,0,0,12.94-2.56,79.23,79.23,0,0,0,10.9-3.37v77.32q0,8.13,3.82,12.6t11.64,4.47q10.71,0,33-9.14V802.12a50,50,0,0,0-1.9-15.11q-1.92-5.87-5.36-6.88v-1.8a110.62,110.62,0,0,0,13-2.56A84.25,84.25,0,0,0,784.29,772.4Z"/><path class="cls-1" d="M804.28,782.44v-1.9q5.87-1.51,13.37-4.17a73.22,73.22,0,0,0,10.66-4.47v12.55Q854.11,773,869.67,773q15.08,0,20.21,12.36Q917.17,773,932.63,773q11.08,0,16.91,6.33t5.82,17.47v58.85a37.36,37.36,0,0,0,1.86,12.65c1.24,3.41,2.85,5.49,4.84,6.22v2.71H931.88v-2.71q3-.9,4.85-6a37.38,37.38,0,0,0,1.86-12.66V801.92q0-8.13-3.82-12.6t-11.45-4.47q-10.91,0-31.49,9.14v61.66a37.9,37.9,0,0,0,1.87,12.8c1.24,3.44,2.85,5.47,4.84,6.07v2.71H868.36v-2.71c2-.6,3.6-2.61,4.85-6a37.38,37.38,0,0,0,1.86-12.66V801.92q0-8-3.77-12.55T860,784.85q-10.71,0-31.67,9.14v61.66a38.11,38.11,0,0,0,1.82,12.7q1.82,5.07,4.89,6.17v2.71H804.84v-2.71c2-.73,3.6-2.79,4.84-6.17a36.58,36.58,0,0,0,1.86-12.51V803a43.26,43.26,0,0,0-1.9-14.06C808.36,785.36,806.58,783.18,804.28,782.44Z"/><path class="cls-1" d="M983.17,799.31l-2.33-16.06q13.78-10.46,33.81-10.45,17.7,0,27.34,8.19t9.64,23.24v53.62a10.18,10.18,0,0,0,2.28,6.88,7.41,7.41,0,0,0,5.92,2.66,13.56,13.56,0,0,0,6.33-1.7l.93,8.43q-9.49,4.51-16.95,4.52a15.06,15.06,0,0,1-9.59-3.06,14.38,14.38,0,0,1-5.13-8.59,189,189,0,0,1-21.7,9.14,48.93,48.93,0,0,1-15.09,2.71q-11.64,0-18.53-7t-6.9-18.72q0-14.86,11.32-23.65t31.06-9.59l19.28-.91V802.12q0-9.24-5.44-14.15t-15.7-4.92Q997.7,783.05,983.17,799.31Zm51.69,59.05v-30l-16.76.61q-12.76.49-20.12,6.17t-7.36,15.41q0,7.74,4.33,12.2t12.06,4.47Q1015.86,867.19,1034.86,858.36Z"/><path class="cls-1" d="M1073.76,782.44v-1.9a110.59,110.59,0,0,0,13.23-4,77.39,77.39,0,0,0,10.8-4.62v12.55Q1124.52,773,1140.73,773q11.18,0,17,6.33t5.82,17.47v58.85a39.37,39.37,0,0,0,1.77,12.8q1.77,5.07,4.94,6.07v2.71h-30.09v-2.71q3-1.1,4.8-6.12a37.33,37.33,0,0,0,1.81-12.56V801.92q0-8-3.91-12.55t-11.73-4.52q-10.73,0-33.35,9.14v61.66a38.11,38.11,0,0,0,1.82,12.7q1.82,5.07,4.89,6.17v2.71h-30.18v-2.71q3-1.1,4.84-6.17a36.58,36.58,0,0,0,1.86-12.51V803a43.26,43.26,0,0,0-1.9-14.06C1077.84,785.36,1076.06,783.18,1073.76,782.44Z"/><path class="cls-1" d="M575.73,808.06c-12.77,3.76-21.21,17.79-36.25,11.26,0-6.58.53-12.83-.12-18.94-1-9-9-15.88-17.65-13.89-8.45,1.94-17.29,4.91-24.25,9.85-9.22,6.54-16.78,15.43-25.25,23.49l-52.86,14.89c-20.72-15.12-42.83-26-66.4-34.48-15.79-5.69-30.91-13.49-45.8-21.36-32.31-16.15-6-42.4,12.06-58,37.06-29.67,95.74-58.08,143.7-59.45,15.46-.28,23.54,9.89,19.45,25-6.52,24-23.76,38.3-45.18,48.84,3.36,4,6.9,5,11.47,1.67,8.2-6,18-10.62,24.53-18,7.77-8.78,14-19.44,18.79-30.2,4.3-9.64-.52-23.52-8.52-27-10.37-4.55-20.47-10.87-32.75-9.29-58.08,3.2-112.2,25.48-156.36,62.85a79.21,79.21,0,0,0-21.25,28.39c-6.69,15.37-5,27.24,6.76,37.63,5,4.38,9.91,9.16,15.68,12.21,18,9.5,36.54,18.09,54.69,27.37,13.9,7.11,30.08,10.25,41.43,22.74-20.34,9.33-40.08,18.31-59.75,27.43-18.55,8.61-38,15.17-54.85,27.51-20.24,15.16-42.7,30.43-53.07,54.33-6.13,15.76,2.76,31.61,19.59,33.82,18.53,2.45,37.23,2.32,55.42-3.06,28.6-8.45,56.45-19.1,80.59-36.85,14.87-10.93,29.37-23,41.52-36.84,19.44-22.06,20-39,6.08-64.35-.18-.33,0-.86,0-2.34l41-13c-.74,5.65-1.86,9.58-1.64,13.43.65,11.62,1.43,23.41,13.64,29.83,8.41,4.42,22.95,2.19,31-5.67,7.22-6.79,15-17.56,20.66-26.76a25.91,25.91,0,0,1,13.46-10.88l30.5-10.71ZM375.17,928.83c-15.67,13.53-33.75,22.39-51.53,32a157.5,157.5,0,0,1-72.18,18.87c-5.8.14-13.23-3.45-17.2-7.79-5.85-6.39-2.43-15.1,2-20.93,7.46-9.77,15.61-19.52,25.2-27.09C288,903,317.59,887,348.87,874.21c18.27-7.74,36-16.56,54.95-22.65C426.74,880.64,396.41,910,375.17,928.83Zm122.19-64.54a13.1,13.1,0,0,1-13.59-1.08,12.32,12.32,0,0,1-1.54-1.37c-4.17-4.33-4.32-10.28-4.45-16.63a43.81,43.81,0,0,1,1.09-10.71,36.26,36.26,0,0,1,7.7-15.76,34,34,0,0,1,16-10.16,10.39,10.39,0,0,1,7.3.46,21.78,21.78,0,0,1,12.58,15.63,18.2,18.2,0,0,1-1.19,10.75l-.46,1.07c-3,6.7-8.45,19-20.61,26.27C499.45,863.21,498.5,863.74,497.36,864.29Zm30.14-52.54a26.13,26.13,0,0,1-4.35-2.08c-2.46-1.47-6.54-3.92-7.37-7.94a5,5,0,0,1,.23-3.28,4.94,4.94,0,0,1,2.59-2.37c1.38-.1,4.77-.12,7.21,2.17a10,10,0,0,1,1.71,2.4c1.56,2.57,2.77,4.59,2.45,6.91A6.9,6.9,0,0,1,527.5,811.75Z"/></svg>