<?xml version="1.0" encoding="UTF-8"?>
<svg id="Layer_1" xmlns="http://www.w3.org/2000/svg" version="1.1" viewBox="0 0 2160 2160">
  <!-- Generator: Adobe Illustrator 30.3.0, SVG Export Plug-In . SVG Version: 2.1.3 Build 182)  -->
  <defs>
    <style>
      .st0 {
        fill: #f4eae4;
      }
    </style>
  </defs>
  <path class="st0" d="M853.8,1951.49c531.64-30.6,1141.89-371.82,1134.86-966.56.67-274.37-120.07-476.7-344.74-628.57C1062.93-20.21,421.57,483.45,494.9,994.06c4.91,34.16,10.08,151.78,130,296.1,112.41,135.28,269.79,228.34,444.76,246.3,32.04,3.29,65.92,4.33,101.4,2.28,54.17-3.13,148.19-9.63,248.71-68.27,30.96-18.06,170.06-103.8,225.41-279.53,47.83-151.86,30.31-362.06-109.95-487.02-106.98-95.31-241.45-101.91-255.68-102.41-62.7-2.21-113.7,11.06-146.16,22.35-158.38,56.54-245.87,212.1-187.17,373.58,42.24,116.18,190.3,170.39,301.85,98.27-158.65,13.72-279.77-74.35-232.31-247.05,36.21-133.88,242.94-205.08,365.85-139.83,200.33,106.35,242.14,301.65,154.16,495.09-127.09,292.69-575.35,327.17-779.78,97.59-31.85-35.77-88.74-104.06-120.59-200.13-26.53-80.01-26.96-146.44-26.89-182.83.2-118.02,34.2-204.72,38.79-218.1,187.58-547.47,1025.7-496.11,1214.32,2.09,196.53,520.69-146.84,978.49-592.38,1162.31-127.89,52.77-264.2,82.96-398.58,85.58"/>
  <circle class="st0" cx="272.41" cy="731.08" r="101.12"/>
  <circle class="st0" cx="281.75" cy="1072.8" r="101.12"/>
  <circle class="st0" cx="378.38" cy="434.58" r="77.72"/>
  <circle class="st0" cx="410.05" cy="1360.88" r="77.72"/>
  <circle class="st0" cx="577.02" cy="262.19" r="53.67"/>
  <circle class="st0" cx="624.4" cy="1526.21" r="53.67"/>
</svg>